<svg xmlns="http://www.w3.org/2000/svg" width="19.969" height="20.44" viewBox="0 0 19.969 20.44">
  <metadata><?xpacket begin="﻿" id="W5M0MpCehiHzreSzNTczkc9d"?>
<x:xmpmeta xmlns:x="adobe:ns:meta/" x:xmptk="Adobe XMP Core 5.6-c138 79.159824, 2016/09/14-01:09:01        ">
   <rdf:RDF xmlns:rdf="http://www.w3.org/1999/02/22-rdf-syntax-ns#">
      <rdf:Description rdf:about=""/>
   </rdf:RDF>
</x:xmpmeta>
                                                                                                    
                                                                                                    
                                                                                                    
                                                                                                    
                                                                                                    
                                                                                                    
                                                                                                    
                                                                                                    
                                                                                                    
                                                                                                    
                                                                                                    
                                                                                                    
                                                                                                    
                                                                                                    
                                                                                                    
                                                                                                    
                                                                                                    
                                                                                                    
                                                                                                    
                                                                                                    
                           
<?xpacket end="w"?></metadata>
<defs>
    <style>
      .cls-1 {
        fill: #0f76a8;
        fill-rule: evenodd;
      }
    </style>
  </defs>
  <path id="LinkedIn" class="cls-1" d="M768.819,1975.1v4.39h-2.49v-4.1c0-1.03-.36-1.73-1.261-1.73a1.364,1.364,0,0,0-1.279.93,1.752,1.752,0,0,0-.082.62v4.28h-2.492s0.034-6.94,0-7.66h2.492v1.08c0,0.01-.012.02-0.016,0.03h0.016v-0.03a2.465,2.465,0,0,1,2.244-1.26C767.592,1971.65,768.819,1972.74,768.819,1975.1Zm-10.208-6.97a1.327,1.327,0,1,0-.035,2.65h0.018A1.327,1.327,0,1,0,758.611,1968.13Zm-1.263,11.36h2.489v-7.66h-2.489v7.66Zm15.659-5.26a10,10,0,1,1-9.994-10.23A10.112,10.112,0,0,1,773.007,1974.23Z" transform="translate(-753.031 -1964)"/>
</svg>
